<svg xmlns="http://www.w3.org/2000/svg" xmlns:xlink="http://www.w3.org/1999/xlink" width="2500" zoomAndPan="magnify" viewBox="0 0 1874.88 525.000007" height="700" preserveAspectRatio="xMidYMid meet" version="1.0"><defs><g/></defs><g fill="#ebebeb" fill-opacity="1"><g transform="translate(9.849341, 434.512323)"><g><path d="M 370.109375 -160 C 370.109375 -111.375 355.679688 -72.628906 326.828125 -43.765625 C 294.078125 -9.398438 251.441406 7.78125 198.921875 7.78125 C 148.660156 7.78125 105.941406 -9.644531 70.765625 -44.5 C 35.585938 -79.351562 18 -122.554688 18 -174.109375 C 18 -225.660156 35.585938 -268.863281 70.765625 -303.71875 C 105.941406 -338.570312 148.660156 -356 198.921875 -356 C 223.878906 -356 247.707031 -351.132812 270.40625 -341.40625 C 293.101562 -331.6875 311.257812 -318.71875 324.875 -302.5 L 294.234375 -271.859375 C 271.210938 -299.421875 239.441406 -313.203125 198.921875 -313.203125 C 162.273438 -313.203125 130.578125 -300.3125 103.828125 -274.53125 C 77.085938 -248.757812 63.71875 -215.285156 63.71875 -174.109375 C 63.71875 -132.929688 77.085938 -99.453125 103.828125 -73.671875 C 130.578125 -47.898438 162.273438 -35.015625 198.921875 -35.015625 C 237.828125 -35.015625 270.25 -47.984375 296.1875 -73.921875 C 313.039062 -90.785156 322.765625 -114.289062 325.359375 -144.4375 L 198.921875 -144.4375 L 198.921875 -186.265625 L 367.671875 -186.265625 C 369.296875 -177.191406 370.109375 -168.4375 370.109375 -160 Z M 370.109375 -160 "/></g></g></g><g fill="#ebebeb" fill-opacity="1"><g transform="translate(394.5256, 434.512323)"><g><path d="M 135.203125 7.78125 C 99.210938 7.78125 69.953125 -4.210938 47.421875 -28.203125 C 24.890625 -52.203125 13.625 -82.519531 13.625 -119.15625 C 13.625 -153.84375 24.566406 -183.671875 46.453125 -208.640625 C 68.335938 -233.609375 96.300781 -246.09375 130.34375 -246.09375 C 165.6875 -246.09375 193.972656 -234.582031 215.203125 -211.5625 C 236.441406 -188.539062 247.0625 -157.738281 247.0625 -119.15625 L 246.578125 -110.890625 L 58.359375 -110.890625 C 59.660156 -86.890625 67.6875 -67.921875 82.4375 -53.984375 C 97.1875 -40.046875 114.453125 -33.078125 134.234375 -33.078125 C 166.328125 -33.078125 188.050781 -46.691406 199.40625 -73.921875 L 239.28125 -57.390625 C 231.5 -38.910156 218.691406 -23.425781 200.859375 -10.9375 C 183.023438 1.539062 161.140625 7.78125 135.203125 7.78125 Z M 199.40625 -147.84375 C 198.425781 -161.46875 192.179688 -174.4375 180.671875 -186.75 C 169.160156 -199.070312 152.0625 -205.234375 129.375 -205.234375 C 112.832031 -205.234375 98.484375 -200.046875 86.328125 -189.671875 C 74.171875 -179.296875 65.820312 -165.351562 61.28125 -147.84375 Z M 199.40625 -147.84375 "/></g></g></g><g fill="#ebebeb" fill-opacity="1"><g transform="translate(650.327892, 434.512323)"><g><path d="M 130.34375 3.890625 C 105.375 3.890625 86.320312 -2.753906 73.1875 -16.046875 C 60.0625 -29.335938 53.5 -48.144531 53.5 -72.46875 L 53.5 -197.453125 L 11.671875 -197.453125 L 11.671875 -238.3125 L 53.5 -238.3125 L 53.5 -311.265625 L 98.234375 -311.265625 L 98.234375 -238.3125 L 156.609375 -238.3125 L 156.609375 -197.453125 L 98.234375 -197.453125 L 98.234375 -75.875 C 98.234375 -49.9375 108.9375 -36.96875 130.34375 -36.96875 C 138.445312 -36.96875 145.253906 -38.265625 150.765625 -40.859375 L 166.328125 -2.4375 C 156.597656 1.78125 144.601562 3.890625 130.34375 3.890625 Z M 130.34375 3.890625 "/></g></g></g><g fill="#ebebeb" fill-opacity="1"><g transform="translate(817.620586, 434.512323)"><g><path d="M 35.015625 0 L 35.015625 -348.21875 L 160.984375 -348.21875 C 188.210938 -348.21875 211.796875 -339.21875 231.734375 -321.21875 C 251.679688 -303.226562 261.65625 -280.617188 261.65625 -253.390625 C 261.65625 -236.847656 257.359375 -222.253906 248.765625 -209.609375 C 240.171875 -196.960938 228.742188 -187.398438 214.484375 -180.921875 L 214.484375 -178.96875 C 231.660156 -173.132812 245.757812 -163.082031 256.78125 -148.8125 C 267.8125 -134.550781 273.328125 -118.019531 273.328125 -99.21875 C 273.328125 -70.6875 262.867188 -47.015625 241.953125 -28.203125 C 221.046875 -9.398438 196.320312 0 167.78125 0 Z M 79.765625 -198.921875 L 160.984375 -198.921875 C 177.835938 -198.921875 191.367188 -204.507812 201.578125 -215.6875 C 211.796875 -226.875 216.90625 -239.113281 216.90625 -252.40625 C 216.90625 -265.707031 211.960938 -277.867188 202.078125 -288.890625 C 192.191406 -299.910156 179.140625 -305.421875 162.921875 -305.421875 L 79.765625 -305.421875 Z M 79.765625 -42.796875 L 169.734375 -42.796875 C 186.921875 -42.796875 200.863281 -48.789062 211.5625 -60.78125 C 222.257812 -72.78125 227.609375 -85.914062 227.609375 -100.1875 C 227.609375 -114.457031 222.09375 -127.507812 211.0625 -139.34375 C 200.039062 -151.175781 185.613281 -157.09375 167.78125 -157.09375 L 79.765625 -157.09375 Z M 79.765625 -42.796875 "/></g></g></g><g fill="#ebebeb" fill-opacity="1"><g transform="translate(1101.629243, 434.512323)"><g><path d="M 102.625 7.78125 C 77.332031 7.78125 56.175781 0.488281 39.15625 -14.09375 C 22.132812 -28.6875 13.625 -47.984375 13.625 -71.984375 C 13.625 -97.921875 23.671875 -118.265625 43.765625 -133.015625 C 63.867188 -147.765625 88.675781 -155.140625 118.1875 -155.140625 C 144.445312 -155.140625 166.003906 -150.273438 182.859375 -140.546875 L 182.859375 -147.359375 C 182.859375 -164.867188 176.859375 -178.890625 164.859375 -189.421875 C 152.867188 -199.960938 138.117188 -205.234375 120.609375 -205.234375 C 107.640625 -205.234375 95.882812 -202.148438 85.34375 -195.984375 C 74.8125 -189.828125 67.601562 -181.398438 63.71875 -170.703125 L 22.859375 -188.21875 C 28.367188 -202.476562 39.226562 -215.6875 55.4375 -227.84375 C 71.65625 -240.007812 93.054688 -246.09375 119.640625 -246.09375 C 150.117188 -246.09375 175.40625 -237.175781 195.5 -219.34375 C 215.601562 -201.507812 225.65625 -176.378906 225.65625 -143.953125 L 225.65625 0 L 182.859375 0 L 182.859375 -33.078125 L 180.921875 -33.078125 C 163.085938 -5.835938 136.988281 7.78125 102.625 7.78125 Z M 109.90625 -33.078125 C 128.394531 -33.078125 145.175781 -39.960938 160.25 -53.734375 C 175.320312 -67.515625 182.859375 -83.8125 182.859375 -102.625 C 170.210938 -113 151.25 -118.1875 125.96875 -118.1875 C 104.238281 -118.1875 87.863281 -113.484375 76.84375 -104.078125 C 65.820312 -94.671875 60.3125 -83.644531 60.3125 -71 C 60.3125 -59.332031 65.332031 -50.09375 75.375 -43.28125 C 85.425781 -36.476562 96.9375 -33.078125 109.90625 -33.078125 Z M 109.90625 -33.078125 "/></g></g></g><g fill="#ebebeb" fill-opacity="1"><g transform="translate(1345.759913, 434.512323)"><g><path d="M 70.03125 -238.3125 L 70.03125 -205.234375 L 71.984375 -205.234375 C 78.460938 -216.585938 88.671875 -226.234375 102.609375 -234.171875 C 116.554688 -242.117188 131.472656 -246.09375 147.359375 -246.09375 C 176.867188 -246.09375 199.40625 -237.015625 214.96875 -218.859375 C 230.53125 -200.703125 238.3125 -176.382812 238.3125 -145.90625 L 238.3125 0 L 193.5625 0 L 193.5625 -139.09375 C 193.5625 -183.1875 173.945312 -205.234375 134.71875 -205.234375 C 116.238281 -205.234375 101.160156 -197.859375 89.484375 -183.109375 C 77.816406 -168.359375 71.984375 -151.253906 71.984375 -131.796875 L 71.984375 0 L 27.234375 0 L 27.234375 -238.3125 Z M 70.03125 -238.3125 "/></g></g></g><g fill="#ebebeb" fill-opacity="1"><g transform="translate(1604.480078, 434.512323)"><g><path d="M 71.984375 -348.21875 L 71.984375 -133.75 L 175.078125 -238.3125 L 232.46875 -238.3125 L 232.46875 -236.359375 L 139.578125 -143.46875 L 236.84375 -1.953125 L 236.84375 0 L 182.859375 0 L 107.96875 -112.34375 L 71.984375 -76.359375 L 71.984375 0 L 27.234375 0 L 27.234375 -348.21875 Z M 71.984375 -348.21875 "/></g></g></g></svg>